<?xml version="1.0" encoding="utf-8"?>
<!-- Generator: Adobe Illustrator 18.0.0, SVG Export Plug-In . SVG Version: 6.00 Build 0)  -->
<!DOCTYPE svg PUBLIC "-//W3C//DTD SVG 1.1//EN" "http://www.w3.org/Graphics/SVG/1.1/DTD/svg11.dtd">
<svg version="1.1" id="Layer_1" xmlns="http://www.w3.org/2000/svg" xmlns:xlink="http://www.w3.org/1999/xlink" x="0px" y="0px"
	 viewBox="0 0 20 20" enable-background="new 0 0 20 20" xml:space="preserve">
<g>
	<circle fill="#FFFFFF" stroke="#2CA02C" stroke-width="2.3" cx="10.1" cy="10.3" r="0"/>
	<path fill="#FFFFFF" stroke="#2CA02C" stroke-width="2.3" d="M10.1,10.3L10.1,10.3L10.1,10.3"/>
</g>
<path fill="#FF0000" d="M20,10.3c0,5.4-4.4,9.7-9.9,9.7c-5.5,0-9.9-4.4-9.9-9.7c0-5.4,4.4-9.7,9.9-9.7C15.6,0.5,20,4.9,20,10.3z"/>
<path fill="#FFFFFF" d="M17.1,10.3c0,3.8-3.1,6.9-7,6.9c-3.9,0-7-3.1-7-6.9c0-3.8,3.1-6.9,7-6.9C13.9,3.4,17.1,6.5,17.1,10.3z"/>
<g>
	<path fill="#FF0000" d="M5.5,12.7L8,10.3L5.5,7.8l2.1-2.1l2.5,2.5l2.5-2.5l2.1,2.1l-2.5,2.5l2.5,2.5l-2.1,2.1l-2.5-2.5l-2.5,2.5
		L5.5,12.7z"/>
</g>
</svg>
